<?xml version="1.0" encoding="UTF-8" standalone="no"?>
<svg
   xmlns:dc="http://purl.org/dc/elements/1.1/"
   xmlns:cc="http://creativecommons.org/ns#"
   xmlns:rdf="http://www.w3.org/1999/02/22-rdf-syntax-ns#"
   xmlns:svg="http://www.w3.org/2000/svg"
   xmlns="http://www.w3.org/2000/svg"
   xmlns:sodipodi="http://sodipodi.sourceforge.net/DTD/sodipodi-0.dtd"
   xmlns:inkscape="http://www.inkscape.org/namespaces/inkscape"
   version="1.1"
   viewBox="0 0 64 64.000001"
   xml:space="preserve"
   id="svg2"
   inkscape:version="0.91 r13725"
   sodipodi:docname="about.svg"
   width="64"
   height="64"><metadata
     id="metadata19"><rdf:RDF><cc:Work
         rdf:about=""><dc:format>image/svg+xml</dc:format><dc:type
           rdf:resource="http://purl.org/dc/dcmitype/StillImage" /><dc:title></dc:title></cc:Work></rdf:RDF></metadata><defs
     id="defs17" /><sodipodi:namedview
     pagecolor="#ffffff"
     bordercolor="#666666"
     borderopacity="1"
     objecttolerance="10"
     gridtolerance="10"
     guidetolerance="10"
     inkscape:pageopacity="0"
     inkscape:pageshadow="2"
     inkscape:window-width="1920"
     inkscape:window-height="1002"
     id="namedview15"
     showgrid="false"
     fit-margin-top="0"
     fit-margin-left="0"
     fit-margin-right="0"
     fit-margin-bottom="0"
     inkscape:zoom="3.7759396"
     inkscape:cx="52.387328"
     inkscape:cy="1.0835124"
     inkscape:window-x="0"
     inkscape:window-y="24"
     inkscape:window-maximized="1"
     inkscape:current-layer="gear-user" /><g
     id="gear-user"
     transform="translate(4.2373557,-440.24535)"><g
       id="g4153"
       transform="matrix(0.128,0,0,0.12799795,-3.6949742,439.70298)"><rect
         height="500.008"
         style="fill:#8fdd7b;fill-opacity:1"
         width="500"
         y="4.2373562"
         id="rect7"
         x="-4.2373557" /><path
         inkscape:connector-curvature="0"
         id="path10"
         style="fill:#ffffff"
         d="m 274.70372,408.57222 c 48.06718,-8.77976 89.47309,-36.44384 116.18692,-75.15755 -14.04316,-9.80124 -38.3136,-17.53376 -62.50882,-27.63655 -31.07987,-12.97047 -38.46333,-17.46073 -38.46333,-17.46073 l -0.28784,-29.83349 c 0,0 11.65088,-8.95343 15.26579,-37.03461 7.27104,2.10837 14.95444,-10.89984 15.35436,-17.72126 0.39824,-6.58484 -0.9977,-24.868 -9.87768,-23.04769 1.78421,-13.75695 3.11748,-26.12991 2.4683,-32.67535 -2.29475,-23.98437 -25.91655,-49.26436 -62.20866,-49.26436 -36.29233,0 -59.91551,25.27999 -62.1837,49.26436 -0.64885,6.54725 0.64889,18.9184 2.46908,32.67535 -8.89389,-1.82031 -10.30199,16.46285 -9.89162,23.04769 0.41212,6.82142 8.04586,19.83108 15.3543,17.72126 3.59118,28.08299 15.26576,37.03461 15.26576,37.03461 l -0.29968,29.83349 c 0,0 -7.38327,4.49026 -38.48881,17.46073 -31.09379,12.97023 -62.53441,22.02756 -71.8625,36.61751 -0.12426,0.22638 -0.23839,0.52617 -0.36095,0.74763 28.22255,35.54611 69.50406,60.11448 116.63644,66.59882 l 29.04656,-51.53411 28.38608,50.36425 z m -28.38608,-90.42153 20.03034,20.03207 -20.00474,20.02859 -20.0541,-20.02859 20.0285,-20.03207 z" /></g></g><g
     id="Layer_1"
     transform="translate(-1.5108642e-7,-436.008)" /></svg>