<?xml version="1.0" encoding="UTF-8" standalone="no"?>
<svg
   xmlns:osb="http://www.openswatchbook.org/uri/2009/osb"
   xmlns:dc="http://purl.org/dc/elements/1.1/"
   xmlns:cc="http://creativecommons.org/ns#"
   xmlns:rdf="http://www.w3.org/1999/02/22-rdf-syntax-ns#"
   xmlns:svg="http://www.w3.org/2000/svg"
   xmlns="http://www.w3.org/2000/svg"
   xmlns:sodipodi="http://sodipodi.sourceforge.net/DTD/sodipodi-0.dtd"
   xmlns:inkscape="http://www.inkscape.org/namespaces/inkscape"
   height="64"
   version="1.1"
   width="64"
   id="svg2"
   inkscape:version="0.91 r13725"
   sodipodi:docname="cv.svg">
  <metadata
     id="metadata28">
    <rdf:RDF>
      <cc:Work
         rdf:about="">
        <dc:format>image/svg+xml</dc:format>
        <dc:type
           rdf:resource="http://purl.org/dc/dcmitype/StillImage" />
        <dc:title></dc:title>
      </cc:Work>
    </rdf:RDF>
  </metadata>
  <defs
     id="defs26">
    <linearGradient
       id="linearGradient5662"
       osb:paint="solid">
      <stop
         style="stop-color:#bab9ae;stop-opacity:1;"
         offset="0"
         id="stop5664" />
    </linearGradient>
    <linearGradient
       id="linearGradient4212"
       osb:paint="solid">
      <stop
         style="stop-color:#e0995e;stop-opacity:1;"
         offset="0"
         id="stop4214" />
    </linearGradient>
  </defs>
  <sodipodi:namedview
     pagecolor="#ffffff"
     bordercolor="#666666"
     borderopacity="1"
     objecttolerance="10"
     gridtolerance="10"
     guidetolerance="10"
     inkscape:pageopacity="0"
     inkscape:pageshadow="2"
     inkscape:window-width="1920"
     inkscape:window-height="1002"
     id="namedview24"
     showgrid="false"
     inkscape:zoom="4.9166667"
     inkscape:cx="49.399142"
     inkscape:cy="30.37026"
     inkscape:window-x="0"
     inkscape:window-y="24"
     inkscape:window-maximized="1"
     inkscape:current-layer="svg2" />
  <rect
     style="opacity:1;fill:#e0995e;fill-opacity:1;fill-rule:nonzero;stroke:none;stroke-opacity:0"
     id="rect5683"
     width="64"
     height="64"
     x="0"
     y="0" />
  <g
     id="g5672"
     transform="matrix(1.5333333,0,0,1.5333333,87.199999,11.131048)">
    <g
       transform="matrix(1,0,0,1.1155624,0,-0.15473806)"
       id="g5668">
      <path
         style="fill:#e0e0d1;fill-opacity:1"
         inkscape:connector-curvature="0"
         id="path8"
         d="m -43,1.339 c -1.1046,0 -2,0.9 -2,2 l 0,8 0,4 0,6 c 0,1.1 0.8954,2 2,2 l 14,0 c 1.105,0 2,-0.9 2,-2 l 0,-6 0,-4 0,-4 -6,-6 -10,0 z" />
      <path
         style="fill:#ffffff;fill-opacity:1"
         inkscape:connector-curvature="0"
         id="path10"
         d="m -27,7.339 -6,-6 0,4 c 0,1.1 0.895,2 2,2 l 4,0 z" />
    </g>
    <g
       transform="matrix(1,0,0,1.1016949,0,0.02711861)"
       style="fill:#bab9ae;fill-opacity:1;stroke:none"
       id="g4205">
      <rect
         style="fill:#bab9ae;fill-opacity:1;stroke:none"
         height="1"
         width="6"
         x="-42"
         y="6.4000001"
         id="rect14" />
      <rect
         style="fill:#bab9ae;fill-opacity:1;stroke:none"
         height="1"
         width="12"
         x="-42"
         y="12.4"
         id="rect18" />
      <rect
         style="fill:#bab9ae;fill-opacity:1;stroke:none"
         height="1"
         width="12"
         x="-42"
         y="15.4"
         id="rect20" />
      <rect
         style="fill:#bab9ae;fill-opacity:1;stroke:none"
         height="1"
         width="12"
         x="-42"
         y="18.4"
         id="rect22" />
      <rect
         style="fill:#bab9ae;fill-opacity:1;stroke:none"
         height="1"
         width="12"
         x="-42"
         y="9.3999996"
         id="rect18-8" />
    </g>
  </g>
</svg>
