<?xml version="1.0" encoding="UTF-8" standalone="no"?>
<svg
   xmlns:dc="http://purl.org/dc/elements/1.1/"
   xmlns:cc="http://creativecommons.org/ns#"
   xmlns:rdf="http://www.w3.org/1999/02/22-rdf-syntax-ns#"
   xmlns:svg="http://www.w3.org/2000/svg"
   xmlns="http://www.w3.org/2000/svg"
   xmlns:sodipodi="http://sodipodi.sourceforge.net/DTD/sodipodi-0.dtd"
   xmlns:inkscape="http://www.inkscape.org/namespaces/inkscape"
   enable-background="new 0 0 48 48"
   id="Layer_1"
   version="1.1"
   viewBox="0 0 64 64"
   xml:space="preserve"
   inkscape:version="0.91 r13725"
   sodipodi:docname="jobs.svg"
   width="64"
   height="64"><metadata
     id="metadata4194"><rdf:RDF><cc:Work
         rdf:about=""><dc:format>image/svg+xml</dc:format><dc:type
           rdf:resource="http://purl.org/dc/dcmitype/StillImage" /><dc:title></dc:title></cc:Work></rdf:RDF></metadata><defs
     id="defs4192" /><sodipodi:namedview
     pagecolor="#ffffff"
     bordercolor="#666666"
     borderopacity="1"
     objecttolerance="10"
     gridtolerance="10"
     guidetolerance="10"
     inkscape:pageopacity="0"
     inkscape:pageshadow="2"
     inkscape:window-width="1920"
     inkscape:window-height="1002"
     id="namedview4190"
     showgrid="false"
     inkscape:zoom="4.9166667"
     inkscape:cx="23.186441"
     inkscape:cy="22.983048"
     inkscape:window-x="0"
     inkscape:window-y="24"
     inkscape:window-maximized="1"
     inkscape:current-layer="Layer_1" /><rect
     style="fill:#1686b0;fill-opacity:1;stroke:#1686b0;stroke-width:1.30612254;stroke-opacity:1"
     id="rect4349"
     width="62.693878"
     height="62.693878"
     x="0.65306091"
     y="0.65306091" /><path
     d="m 23.320596,46.584661 -6.223538,0 0,-20.023536 6.223538,0 0,20.023536 z m -3.38236,-22.594112 0,0 c -2.300004,0 -3.788236,-1.488248 -3.788236,-3.517656 0,-2.029412 1.488232,-3.51764 3.788236,-3.51764 2.299996,0 3.788236,1.488228 3.788236,3.51764 0,2.029408 -1.352944,3.517656 -3.788236,3.517656 z M 48.35,46.584661 l -7.170596,0 0,-10.417652 c 0,-2.705882 -1.082343,-4.599994 -3.51764,-4.599994 -1.894118,0 -2.841172,1.217648 -3.382352,2.435292 -0.135294,0.405884 -0.135294,1.082354 -0.135294,1.623534 l 0,10.823526 -7.035298,0 c 0,0 0.135296,-18.399998 0,-20.023526 l 7.035298,0 0,3.111762 c 0.405884,-1.352944 2.705882,-3.382352 6.223522,-3.382352 4.464714,0 7.98236,2.841178 7.98236,9.06471 l 0,11.3647 z"
     id="path4188"
     inkscape:connector-curvature="0"
     style="fill:#ffffff" /></svg>