<?xml version="1.0" encoding="UTF-8" standalone="no"?>
<svg
   xmlns:dc="http://purl.org/dc/elements/1.1/"
   xmlns:cc="http://creativecommons.org/ns#"
   xmlns:rdf="http://www.w3.org/1999/02/22-rdf-syntax-ns#"
   xmlns:svg="http://www.w3.org/2000/svg"
   xmlns="http://www.w3.org/2000/svg"
   xmlns:sodipodi="http://sodipodi.sourceforge.net/DTD/sodipodi-0.dtd"
   xmlns:inkscape="http://www.inkscape.org/namespaces/inkscape"
   height="60"
   id="Layer_1"
   version="1.1"
   viewBox="0 0 60 60"
   width="60"
   xml:space="preserve"
   inkscape:version="0.91 r13725"
   sodipodi:docname="repo.svg"><metadata
     id="metadata3578"><rdf:RDF><cc:Work
         rdf:about=""><dc:format>image/svg+xml</dc:format><dc:type
           rdf:resource="http://purl.org/dc/dcmitype/StillImage" /><dc:title /></cc:Work></rdf:RDF></metadata><defs
     id="defs3576" /><sodipodi:namedview
     pagecolor="#ffffff"
     bordercolor="#666666"
     borderopacity="1"
     objecttolerance="10"
     gridtolerance="10"
     guidetolerance="10"
     inkscape:pageopacity="0"
     inkscape:pageshadow="2"
     inkscape:window-width="1920"
     inkscape:window-height="1002"
     id="namedview3574"
     showgrid="false"
     fit-margin-top="0"
     fit-margin-left="0"
     fit-margin-right="0"
     fit-margin-bottom="0"
     inkscape:zoom="3.5223881"
     inkscape:cx="-12.794491"
     inkscape:cy="30.5"
     inkscape:window-x="0"
     inkscape:window-y="24"
     inkscape:window-maximized="1"
     inkscape:current-layer="Layer_1" /><rect
     style="fill:#ffffff;fill-opacity:1;stroke:#000000;stroke-width:0.76460248;stroke-opacity:0"
     id="rect3339"
     width="63.235397"
     height="63.235397"
     x="-1.6176987"
     y="-1.6176987" /><path
     d="m 16.712533,30.605867 c -0.0576,0 0.631467,1.458133 0.650667,1.458133 1.504,2.683733 4.4032,4.352 9.293867,4.813867 -0.6976,0.520533 -1.536,1.509333 -1.652267,2.651733 -0.877867,0.5568 -2.6432,0.741333 -4.014933,0.3168 -1.9232,-0.597333 -2.6592,-4.338133 -5.538134,-3.8048 -0.622933,0.1152 -0.4992,0.5184 0.03947,0.862933 0.877867,0.5568 1.703467,1.256534 2.340267,2.7424 0.4896,1.141334 1.517866,3.1808 4.7712,3.1808 1.290666,0 2.1952,-0.1536 2.1952,-0.1536 0,0 0.02453,2.913067 0.02453,4.045867 0,1.306667 -1.794133,1.674667 -1.794133,2.302933 0,0.247467 0.594133,0.272 1.070933,0.272 0.942933,0 2.904533,-0.7744 2.904533,-2.1312 0,-1.0784 0.01813,-4.705066 0.01813,-5.339733 0,-1.386667 0.756266,-1.826133 0.756266,-1.826133 0,0 0.09387,7.403733 -0.180266,8.3968 -0.322134,1.166933 -0.903467,1.000533 -0.903467,1.522133 0,0.7744 2.3616,0.189867 3.144533,-1.5104 0.6048,-1.322667 0.340267,-8.586667 0.340267,-8.586667 l 0.645333,-0.0128 c 0,0 0.03627,3.3248 0.01387,4.8448 -0.0224,1.5744 -0.1312,3.5648 0.820267,4.503467 0.625066,0.616533 2.6496,1.700267 2.6496,0.7104 0,-0.574933 -1.109334,-1.047467 -1.109334,-2.603733 l 0,-7.162667 c 0.8864,0 0.753067,2.3552 0.753067,2.3552 l 0.06507,4.376533 c 0,0 -0.196267,1.5936 1.754666,2.261334 0.688,0.2368 2.16,0.299733 2.229334,-0.09707 0.06933,-0.397867 -1.7728,-0.9888 -1.789867,-2.224 -0.01067,-0.753067 0.03413,-1.192533 0.03413,-4.465067 0,-3.272533 -0.446933,-4.482133 -2.005333,-5.445333 4.808533,-0.4864 7.7856,-1.655467 9.2352,-4.786133 0.113067,0.0032 0.592,-1.4624 0.529067,-1.4624 C 44.329599,29.4304 44.505599,28.032 44.539732,26.376533 44.531232,21.8848 42.344532,20.2976 41.925332,19.552 42.544,16.151467 41.8208,14.605867 41.485867,14.074667 40.2464,13.6416 37.175467,15.189333 35.496533,16.2784 32.7616,15.493333 26.978133,15.568 24.8096,16.481067 c -4.001067,-2.816 -6.1184,-2.384 -6.1184,-2.384 0,0 -1.368533,2.4096 -0.3616,5.936 -1.316267,1.649066 -2.2976,2.816 -2.2976,5.908266 0.0011,1.744 0.210133,3.303467 0.680533,4.664534 z M -2,-2 l 64,0 0,64 -64,0 0,-64 z"
     style="clip-rule:evenodd;fill:#333333;fill-rule:evenodd"
     id="path3572"
     inkscape:connector-curvature="0" /></svg>