<svg width="64" height="64" viewBox="0 0 64 64">
  <rect width="64" height="64" x="0" y="0" fill="#1686b0"/>
  <path d="m23.321 46.585-6.224 0 0-20.024 6.224 0 0 20.024zm-3.382-22.594 0 0c-2.3 0-3.788-1.488-3.788-3.518 0-2.029 1.488-3.518 3.788-3.518 2.3 0 3.788 1.488 3.788 3.518 0 2.029-1.353 3.518-3.788 3.518zM48.35 46.585l-7.171 0 0-10.418c0-2.706-1.082-4.6-3.518-4.6-1.894 0-2.841 1.218-3.382 2.435-0.135 0.406-0.135 1.082-0.135 1.624l0 10.824-7.035 0c0 0 0.135-18.4 0-20.024l7.035 0 0 3.112c0.406-1.353 2.706-3.382 6.224-3.382 4.465 0 7.982 2.841 7.982 9.065l0 11.365z" fill="white"/>
</svg>
