<svg
  xmlns:svg="http://www.w3.org/2000/svg"
  xmlns="http://www.w3.org/2000/svg"
  width="64"
  height="64">
  <rect
    style="fill:#e0995e"
    width="64"
    height="64"
    x="0"
    y="0" />
  <path
    style="fill:#f5f5f5"
    d="m 21.266667,13.184181 c -1.69372,0 -3.066666,1.539476 -3.066666,3.421058 l 0,13.684232 0,6.842116 0,10.263174 c 0,1.881582 1.372946,3.421058 3.066666,3.421058 l 21.466666,0 c 1.694334,0 3.066667,-1.539476 3.066667,-3.421058 l 0,-10.263174 0,-6.842116 0,-6.842116 -9.2,-10.263174 -15.333333,0 z" />
  <path
    style="fill:#ffffff"
    d="m 45.8,23.447355 -9.2,-10.263174 0,6.842116 c 0,1.881582 1.372333,3.421058 3.066667,3.421058 l 6.133333,0 z" />
  <g
    style="fill:#cccccc"
    transform="matrix(1.5333333,0,0,1.6892655,87.199999,11.17263)">
    <rect
      y="6.4000001"
      x="-42"
      width="6"
      height="1"
      style="fill:#cccccc" />
    <rect
      y="12.4"
      x="-42"
      width="12"
      height="1"
      style="fill:#cccccc" />
    <rect
      y="15.4"
      x="-42"
      width="12"
      height="1"
      style="fill:#cccccc" />
    <rect
      y="18.4"
      x="-42"
      width="12"
      height="1"
      style="fill:#cccccc" />
    <rect
      y="9.3999996"
      x="-42"
      width="12"
      height="1"
      style="fill:#cccccc" />
  </g>
</svg>
