<svg width="64" height="64" viewBox="0 0 64 64">
  <rect width="64" height="64" fill="#e0995e"/>
  <path d="m21.3 13.2c-1.7 0-3.1 1.5-3.1 3.4l0 13.7 0 6.8 0 10.3c0 1.9 1.4 3.4 3.1 3.4l21.5 0c1.7 0 3.1-1.5 3.1-3.4l0-10.3 0-6.8 0-6.8-9.2-10.3-15.3 0z" fill="#eee"/>
  <path d="m45.8 23.4-9.2-10.3 0 6.8c0 1.9 1.4 3.4 3.1 3.4l6.1 0z" fill="white"/>
  <rect height="1.7" width="9.2" x="22.8" y="22" fill="#ccc"/>
  <rect height="1.7" width="18.4" x="22.8" y="32.1" fill="#ccc"/>
  <rect height="1.7" width="18.4" x="22.8" y="37.2" fill="#ccc"/>
  <rect height="1.7" width="18.4" x="22.8" y="42.3" fill="#ccc"/>
  <rect height="1.7" width="18.4" x="22.8" y="27.1" fill="#ccc"/>
</svg>
